<svg xmlns="http://www.w3.org/2000/svg" viewBox="0 0 30 25.5"><defs><style>.cls-1{fill:#fff;}</style></defs><title>connections</title><g id="Layer_2" data-name="Layer 2"><g id="Layer_1-2" data-name="Layer 1"><g id="Group_3" data-name="Group 3"><path id="Path_3" data-name="Path 3" class="cls-1" d="M4.59,0h-4A.55.55,0,0,0,.08.58V5.41A.55.55,0,0,0,.57,6h4a.55.55,0,0,0,.49-.59V.58A.55.55,0,0,0,4.59,0Z"/><path id="Path_4" data-name="Path 4" class="cls-1" d="M29.51,2.19H7a.54.54,0,0,0-.48.59v.39A.54.54,0,0,0,7,3.75H29.51A.54.54,0,0,0,30,3.17V2.78A.54.54,0,0,0,29.51,2.19Z"/><path id="Path_5" data-name="Path 5" class="cls-1" d="M4.59,9.75h-4a.55.55,0,0,0-.49.59v4.82a.55.55,0,0,0,.49.59h4a.55.55,0,0,0,.49-.59V10.34A.55.55,0,0,0,4.59,9.75Z"/><path id="Path_6" data-name="Path 6" class="cls-1" d="M29.51,12H7a.54.54,0,0,0-.48.58v.39a.54.54,0,0,0,.48.59H29.51a.54.54,0,0,0,.49-.59v-.39A.54.54,0,0,0,29.51,12Z"/><path id="Path_7" data-name="Path 7" class="cls-1" d="M4.51,19.5h-4a.55.55,0,0,0-.49.59v4.82a.55.55,0,0,0,.49.59h4A.54.54,0,0,0,5,24.92V20.09A.54.54,0,0,0,4.51,19.5Z"/><path id="Path_8" data-name="Path 8" class="cls-1" d="M29.43,21.7H6.94a.54.54,0,0,0-.48.58v.39a.54.54,0,0,0,.48.59H29.43a.55.55,0,0,0,.49-.59v-.39A.54.54,0,0,0,29.43,21.7Z"/></g></g></g></svg>