<svg xmlns="http://www.w3.org/2000/svg" viewBox="0 0 30 30"><defs><style>.cls-1{fill:#fff;}</style></defs><title>Home</title><g id="Layer_2" data-name="Layer 2"><g id="Layer_1-2" data-name="Layer 1"><g id="Group_2" data-name="Group 2"><path id="Path_1" data-name="Path 1" class="cls-1" d="M30,30H0A17.24,17.24,0,0,1,5.75,17,11.16,11.16,0,0,0,15,22.12,11.17,11.17,0,0,0,24.23,17,17.23,17.23,0,0,1,30,30Z"/><path id="Path_2" data-name="Path 2" class="cls-1" d="M23.47,9.39a10,10,0,0,1-1.8,5.77A8,8,0,0,1,10.6,17.48a7.88,7.88,0,0,1-2.3-2.3A9.92,9.92,0,0,1,6.5,9.39C6.49,4.2,10.29,0,15,0S23.47,4.2,23.47,9.39Z"/></g></g></g></svg>