<svg xmlns="http://www.w3.org/2000/svg" viewBox="0 0 32.32 32.31"><defs><style>.cls-1{fill:#fff;}</style></defs><title>settings</title><g id="Layer_2" data-name="Layer 2"><g id="Layer_1-2" data-name="Layer 1"><g id="Group_202" data-name="Group 202"><path id="Path_19" data-name="Path 19" class="cls-1" d="M28.34,12.44a13.3,13.3,0,0,0-.93-2.28,12.65,12.65,0,1,0-7.53,18A12.14,12.14,0,0,0,22,27.27a12.66,12.66,0,0,0,6.31-14.83ZM16.16,22.63a6.49,6.49,0,1,1,3.71-1.18,6.29,6.29,0,0,1-2.6,1.08,6.84,6.84,0,0,1-1.11.1Z"/><path id="Path_20" data-name="Path 20" class="cls-1" d="M19.87,2.3v8.56a6.5,6.5,0,0,0-7.43,0V2.3A2.31,2.31,0,0,1,14.74,0h2.83A2.3,2.3,0,0,1,19.87,2.3Z"/><path id="Path_21" data-name="Path 21" class="cls-1" d="M15,9.79A6.47,6.47,0,0,0,9.79,15l-2.6-2.6L5,10.22,3.73,9a2.31,2.31,0,0,1,0-3.25l2-2A2.31,2.31,0,0,1,9,3.73Z"/><path id="Path_22" data-name="Path 22" class="cls-1" d="M9.79,17.28a6.53,6.53,0,0,0,1.07,2.6H2.3A2.31,2.31,0,0,1,0,17.58V14.74a2.31,2.31,0,0,1,2.3-2.3h8.56a6.51,6.51,0,0,0-1.07,4.84Z"/><path id="Path_23" data-name="Path 23" class="cls-1" d="M15,22.53l-2.6,2.6-2.12,2.12L9,28.58a2.29,2.29,0,0,1-3.25,0l-2-2a2.31,2.31,0,0,1,0-3.25l6.06-6A6.47,6.47,0,0,0,15,22.53Z"/><path id="Path_24" data-name="Path 24" class="cls-1" d="M19.87,21.45V30a2.3,2.3,0,0,1-2.3,2.3H14.74a2.31,2.31,0,0,1-2.3-2.3V21.45a6.36,6.36,0,0,0,3.72,1.17,6.06,6.06,0,0,0,1.12-.1A6.29,6.29,0,0,0,19.87,21.45Z"/><path id="Path_25" data-name="Path 25" class="cls-1" d="M28.59,26.58l-2,2a2.31,2.31,0,0,1-3.26,0L22,27.28l-2.15-2.15-2.6-2.6a6.46,6.46,0,0,0,5.25-5.26l6.06,6.06A2.31,2.31,0,0,1,28.59,26.58Z"/><path id="Path_26" data-name="Path 26" class="cls-1" d="M32.32,14.74v2.83a2.31,2.31,0,0,1-2.3,2.3H21.45a6.48,6.48,0,0,0,0-7.43H30A2.32,2.32,0,0,1,32.32,14.74Z"/><path id="Path_27" data-name="Path 27" class="cls-1" d="M28.59,9l-1.18,1.17-2.28,2.28L22.53,15a6.47,6.47,0,0,0-5.25-5.25l6-6.06a2.31,2.31,0,0,1,3.25,0l2,2A2.31,2.31,0,0,1,28.59,9Z"/></g></g></g></svg>