<svg xmlns="http://www.w3.org/2000/svg" xmlns:xlink="http://www.w3.org/1999/xlink" viewBox="-123.48 -324 72 60">
  <defs>
    <style>
      .cls-1 {
        clip-path: url(#clip-icon6_1);
      }

      .cls-2 {
        fill: #fff;
      }
    </style>
    <clipPath id="clip-icon6_1">
      <rect x="-123.48" y="-324" width="72" height="60"/>
    </clipPath>
  </defs>
  <g id="icon6_1" data-name="icon6 – 1" class="cls-1">
    <rect class="cls-2" x="-123.48" y="-324" width="72" height="60"/>
    <g id="Group_202" data-name="Group 202" transform="translate(-103.5 -309.815)">
      <path id="Path_19" data-name="Path 19" class="cls-2" d="M175.689,153.055a12.559,12.559,0,0,0-.927-2.281,12.718,12.718,0,0,0-5.233-5.278,12.487,12.487,0,0,0-2.3-.955,12.665,12.665,0,0,0-15.734,15.946,12.542,12.542,0,0,0,.905,2.138,12.7,12.7,0,0,0,5.278,5.233,12.688,12.688,0,0,0,9.549.905,12.433,12.433,0,0,0,2.15-.875,12.631,12.631,0,0,0,6.835-11.24A12.54,12.54,0,0,0,175.689,153.055Zm-12.181,10.184a6.466,6.466,0,0,1-5.294-2.752,6.4,6.4,0,0,1-1.077-2.6,6.469,6.469,0,0,1,2.655-6.411,6.4,6.4,0,0,1,2.6-1.077,6.469,6.469,0,0,1,6.411,2.655,6.452,6.452,0,0,1,1.174,3.716,6.467,6.467,0,0,1-2.752,5.294,6.4,6.4,0,0,1-2.6,1.077A6.488,6.488,0,0,1,163.509,163.239Z" transform="translate(-147.351 -140.613)"/>
      <path id="Path_20" data-name="Path 20" class="cls-2" d="M536.432,2.3v8.563a6.4,6.4,0,0,0-2.6-1.077A6.466,6.466,0,0,0,529,10.864V2.3A2.307,2.307,0,0,1,531.3,0h2.832A2.307,2.307,0,0,1,536.432,2.3Z" transform="translate(-516.558)"/>
      <path id="Path_21" data-name="Path 21" class="cls-2" d="M142.178,136.924a6.47,6.47,0,0,0-5.254,5.254l-2.6-2.6-2.22-2.22-1.235-1.235a2.308,2.308,0,0,1,0-3.253l2-2a2.308,2.308,0,0,1,3.253,0Z" transform="translate(-127.138 -127.138)"/>
      <path id="Path_22" data-name="Path 22" class="cls-2" d="M9.786,533.833a6.435,6.435,0,0,0,1.077,2.6H2.3a2.307,2.307,0,0,1-2.3-2.3V531.3A2.307,2.307,0,0,1,2.3,529h8.563a6.4,6.4,0,0,0-1.077,2.6,6.518,6.518,0,0,0,0,2.234Z" transform="translate(0 -516.558)"/>
      <path id="Path_23" data-name="Path 23" class="cls-2" d="M142.178,739.754l-2.6,2.6-2.117,2.117-1.338,1.338a2.308,2.308,0,0,1-3.253,0l-2-2a2.308,2.308,0,0,1,0-3.253l6.054-6.054a6.47,6.47,0,0,0,5.254,5.254Z" transform="translate(-127.138 -717.225)"/>
      <path id="Path_24" data-name="Path 24" class="cls-2" d="M536.432,912.1v8.563a2.307,2.307,0,0,1-2.3,2.3H531.3a2.307,2.307,0,0,1-2.3-2.3V912.1a6.453,6.453,0,0,0,3.716,1.173,6.479,6.479,0,0,0,1.117-.1A6.4,6.4,0,0,0,536.432,912.1Z" transform="translate(-516.558 -890.648)"/>
      <path id="Path_25" data-name="Path 25" class="cls-2" d="M745.81,743.807l-2,2a2.308,2.308,0,0,1-3.253,0l-1.305-1.305-2.15-2.15-2.6-2.6a6.471,6.471,0,0,0,5.254-5.254l6.054,6.054A2.306,2.306,0,0,1,745.81,743.807Z" transform="translate(-717.225 -717.225)"/>
      <path id="Path_26" data-name="Path 26" class="cls-2" d="M922.964,531.3v2.832a2.307,2.307,0,0,1-2.3,2.3H912.1a6.453,6.453,0,0,0,1.173-3.716A6.453,6.453,0,0,0,912.1,529h8.563A2.307,2.307,0,0,1,922.964,531.3Z" transform="translate(-890.648 -516.558)"/>
      <path id="Path_27" data-name="Path 27" class="cls-2" d="M745.811,136.125l-1.174,1.174-2.281,2.281-2.6,2.6a6.471,6.471,0,0,0-5.254-5.254l6.054-6.054a2.308,2.308,0,0,1,3.253,0l2,2A2.306,2.306,0,0,1,745.811,136.125Z" transform="translate(-717.225 -127.138)"/>
    </g>
  </g>
</svg>
